<?xml version="1.0" encoding="UTF-8" standalone="no"?>
<!DOCTYPE svg PUBLIC "-//W3C//DTD SVG 1.1//EN" "http://www.w3.org/Graphics/SVG/1.1/DTD/svg11.dtd">
<svg width="100%" height="100%" viewBox="0 0 65 65" version="1.1" xmlns="http://www.w3.org/2000/svg" xmlns:xlink="http://www.w3.org/1999/xlink" xml:space="preserve" xmlns:serif="http://www.serif.com/" style="fill-rule:evenodd;clip-rule:evenodd;stroke-linejoin:round;stroke-miterlimit:2;">
    <g id="B" transform="matrix(1,0,0,1,0.5,0.5)">
        <g>
            <path d="M1.305,41.202C5.259,54.386 17.488,64 31.959,64C49.632,64 63.959,49.673 63.959,32C63.959,14.327 49.632,0 31.959,0C15.001,0 1.124,13.193 0.028,29.874C2.102,33.351 2.907,35.502 1.303,41.202L1.305,41.202Z" style="fill:rgb(56,61,72);fill-rule:nonzero;"/>
            <g transform="matrix(-0.984183,-1.19698e-16,9.80712e-17,-0.795301,95.4776,96.4352)">
                <g id="Arrow">
                    <path d="M45.613,41.896C45.811,41.658 46.125,41.658 46.322,41.896C48.069,44.002 55.776,53.297 58.421,56.487C58.569,56.666 58.615,56.938 58.537,57.174C58.459,57.411 58.273,57.566 58.067,57.566C55.616,57.566 50.417,57.566 50.417,57.566L50.417,80.833L41.519,90.628L41.519,57.566L33.869,57.566C33.662,57.566 33.476,57.411 33.399,57.174C33.321,56.938 33.367,56.666 33.515,56.487C36.16,53.297 43.867,44.002 45.613,41.896Z" style="fill:white;"/>
                    <path d="M44.904,40.996C43.158,43.102 35.45,52.397 32.805,55.587C32.361,56.122 32.224,56.937 32.457,57.648C32.691,58.359 33.249,58.824 33.869,58.824L40.502,58.824C40.502,58.824 40.502,90.628 40.502,90.628L42.194,91.567L51.433,81.398L51.433,58.824C51.433,58.824 58.067,58.824 58.067,58.824C58.687,58.824 59.245,58.359 59.478,57.648C59.712,56.937 59.574,56.122 59.13,55.587C56.485,52.397 48.778,43.102 47.032,40.996C46.44,40.282 45.496,40.282 44.904,40.996L44.904,40.996ZM45.613,41.896C45.811,41.658 46.125,41.658 46.322,41.896C48.069,44.002 55.776,53.297 58.421,56.487C58.569,56.666 58.615,56.938 58.537,57.174C58.459,57.411 58.273,57.566 58.067,57.566C55.616,57.566 50.417,57.566 50.417,57.566L50.417,80.833L41.519,90.628L41.519,57.566L33.869,57.566C33.662,57.566 33.476,57.411 33.399,57.174C33.321,56.938 33.367,56.666 33.515,56.487C36.16,53.297 43.867,44.002 45.613,41.896Z" style="fill:rgb(56,61,72);"/>
                </g>
            </g>
            <path id="Steam" d="M30.31,23.985L30.313,24.143L22.483,35.518C21.215,35.46 19.943,35.683 18.735,36.18C18.209,36.394 17.707,36.662 17.237,36.98L0.042,29.893C0.042,29.893 -0.356,36.439 1.302,41.317L13.458,46.333C14.058,49.061 15.938,51.453 18.7,52.603C23.194,54.47 28.43,52.313 30.303,47.821C30.786,46.664 31.019,45.418 30.987,44.165L42.18,36.16L42.455,36.165C49.16,36.165 54.61,30.699 54.61,23.985C54.61,17.271 49.17,11.825 42.455,11.811C35.753,11.811 30.3,17.271 30.3,23.985L30.31,23.985ZM28.43,47.035C26.976,50.535 22.964,52.182 19.477,50.729C17.93,50.079 16.675,48.882 15.953,47.367L19.91,49.007C20.524,49.262 21.182,49.394 21.847,49.394C23.879,49.394 25.721,48.165 26.501,46.288C27.565,43.733 26.34,40.754 23.786,39.687L19.686,37.992C21.264,37.392 23.058,37.372 24.736,38.069C26.436,38.772 27.736,40.096 28.432,41.789C29.128,43.482 29.124,45.349 28.422,47.035M42.466,32.1C38.022,32.088 34.372,28.431 34.368,23.987C34.373,19.544 38.023,15.888 42.466,15.876C46.91,15.887 50.561,19.543 50.566,23.987C50.562,28.431 46.91,32.089 42.466,32.1M36.398,23.974C36.395,20.635 39.139,17.884 42.478,17.879C45.833,17.879 48.562,20.609 48.562,23.974C48.564,27.314 45.818,30.064 42.478,30.067C39.139,30.062 36.395,27.313 36.397,23.974L36.398,23.974Z" style="fill:rgb(175,212,255);fill-rule:nonzero;"/>
        </g>
    </g>
</svg>
